<?xml version="1.0" encoding="utf-8"?>
<!-- Generator: Adobe Illustrator 15.1.0, SVG Export Plug-In  -->
<!DOCTYPE svg PUBLIC "-//W3C//DTD SVG 1.1//EN" "http://www.w3.org/Graphics/SVG/1.1/DTD/svg11.dtd" [
	<!ENTITY ns_flows "http://ns.adobe.com/Flows/1.0/">
]>
<svg version="1.1"
	 xmlns="http://www.w3.org/2000/svg" xmlns:xlink="http://www.w3.org/1999/xlink" xmlns:a="http://ns.adobe.com/AdobeSVGViewerExtensions/3.0/"
	 x="0px" y="0px" width="50px" height="50px" viewBox="-1.243 0 50 50" enable-background="new -1.243 0 50 50"
	 xml:space="preserve">
<defs>
</defs>
<path fill="#5B6770" d="M28.906,24.438h-5.44c-6.855,0-7.562,10.083-6.928,10.729c1.712,1.599,5.431,2.716,9.704,2.716
	s7.788-1.065,9.386-2.563C36.273,34.776,35.75,24.438,28.906,24.438z M34.131,33.825c-1.28,1.178-4.375,1.916-7.89,1.916
	s-6.609-0.749-7.89-1.916c-0.103-0.319,0.491-7.357,5.225-7.357h5.441C33.701,26.458,34.245,33.497,34.131,33.825L34.131,33.825z"/>
<path fill="#5B6770" d="M26.139,23.793c3.197,0,5.871-2.562,5.759-5.758c0-3.197-2.562-5.759-5.759-5.759
	c-3.196,0-5.759,2.562-5.759,5.759C20.38,21.231,22.933,23.793,26.139,23.793z M26.139,14.406c2.132,0,3.73,1.599,3.73,3.628
	c0,2.028-1.712,3.626-3.73,3.626s-3.74-1.599-3.74-3.626C22.399,16.005,24.11,14.406,26.139,14.406z"/>
<path fill="#5B6770" d="M42.667,0H8.854C6.292,0,4.263,2.029,4.263,4.591v9.386H0v2.131h4.263v7.89H0v2.13h4.263v7.892H0v2.13h4.263
	v9.387c0,2.563,2.029,4.591,4.591,4.591h33.71c2.563,0,4.591-2.028,4.693-4.591V4.591C47.257,2.029,45.229,0,42.667,0z
	 M45.126,45.557c0,1.281-1.065,2.449-2.449,2.449H8.864c-1.281,0-2.449-1.065-2.449-2.449V36.17h4.058v-2.131H6.404v-7.89h4.059
	v-2.13H6.404v-7.891h4.059v-2.131H6.404V4.591c0-1.281,1.066-2.449,2.45-2.449h33.813c1.282,0,2.449,1.065,2.449,2.449v40.966
	H45.126z"/>
</svg>
