<svg xmlns="http://www.w3.org/2000/svg" xmlns:xlink="http://www.w3.org/1999/xlink" width="16" height="13" viewBox="0 0 16 13"><defs><path id="3caxa" d="M1211.23 334.2l.01.42c0 4.3-3.27 9.26-9.25 9.26a9.15 9.15 0 0 1-4.99-1.46 6.53 6.53 0 0 0 4.81-1.35 3.25 3.25 0 0 1-3.04-2.26 3.18 3.18 0 0 0 1.47-.05 3.25 3.25 0 0 1-2.6-3.19v-.04c.44.25.94.4 1.47.41a3.25 3.25 0 0 1-1-4.34c1.6 1.96 4 3.26 6.7 3.4a3.25 3.25 0 0 1 5.54-2.97 6.65 6.65 0 0 0 2.06-.8c-.25.77-.76 1.4-1.43 1.8a6.53 6.53 0 0 0 1.87-.5 6.67 6.67 0 0 1-1.62 1.68z"/></defs><g><g transform="translate(-1197 -331)"><use fill="#a4b0d3" xlink:href="#3caxa"/></g></g></svg>