<svg xmlns="http://www.w3.org/2000/svg" xmlns:xlink="http://www.w3.org/1999/xlink" width="15" height="15" viewBox="0 0 15 15"><defs><path id="sdoda" d="M1254.53 334.46a.98.98 0 0 0 .69-1.67.98.98 0 0 0-1.38 0 .98.98 0 0 0 0 1.38c.18.18.43.29.69.29zm-4.03.5a2.54 2.54 0 1 1 0 5.08 2.54 2.54 0 0 1 0-5.07zm0 6.4a3.87 3.87 0 1 0 0-7.73 3.87 3.87 0 0 0 0 7.74zm-3.36-10.03h6.72c1.55 0 2.8 1.26 2.8 2.81v6.72c0 1.55-1.25 2.8-2.8 2.8h-6.72a2.81 2.81 0 0 1-2.8-2.8v-6.72c0-1.55 1.25-2.8 2.8-2.8zm6.72 13.67a4.14 4.14 0 0 0 4.14-4.14v-6.72a4.14 4.14 0 0 0-4.14-4.14h-6.72a4.14 4.14 0 0 0-4.14 4.14v6.72a4.14 4.14 0 0 0 4.14 4.14z"/></defs><g><g transform="translate(-1243 -330)"><use fill="#a4b0d3" xlink:href="#sdoda"/></g></g></svg>