<?xml version="1.0" encoding="utf-8"?>
<!-- Generator: Adobe Illustrator 15.1.0, SVG Export Plug-In  -->
<!DOCTYPE svg PUBLIC "-//W3C//DTD SVG 1.1//EN" "http://www.w3.org/Graphics/SVG/1.1/DTD/svg11.dtd" [
	<!ENTITY ns_flows "http://ns.adobe.com/Flows/1.0/">
]>
<svg version="1.1"
	 xmlns="http://www.w3.org/2000/svg" xmlns:xlink="http://www.w3.org/1999/xlink" xmlns:a="http://ns.adobe.com/AdobeSVGViewerExtensions/3.0/"
	 x="0px" y="0px" width="30px" height="30px" viewBox="-0.325 -0.324 30 30" enable-background="new -0.325 -0.324 30 30"
	 xml:space="preserve">
<defs>
</defs>
<path fill="#FFFFFF" d="M14.676,0C6.571,0,0,6.569,0,14.673c0,8.108,6.571,14.679,14.676,14.679c8.107,0,14.675-6.571,14.675-14.679
	C29.351,6.569,22.783,0,14.676,0z M14.676,27.848c-7.276,0-13.172-5.898-13.172-13.176c0-7.273,5.896-13.171,13.172-13.171
	c7.277,0,13.171,5.897,13.171,13.171C27.847,21.949,21.951,27.848,14.676,27.848z"/>
<polygon fill="#FFFFFF" points="16.351,18.01 16.994,4.806 12.389,4.806 13.029,18.01 "/>
<path fill="#FFFFFF" d="M14.691,19.466c-1.543,0-2.624,1.081-2.624,2.652c0,1.516,1.049,2.653,2.565,2.653h0.059
	c1.574,0,2.591-1.138,2.591-2.653C17.257,20.547,16.236,19.466,14.691,19.466z"/>
</svg>
