<?xml version="1.0" encoding="UTF-8" standalone="no"?>
<svg width="76px" height="76px" viewBox="0 0 76 76" version="1.1" xmlns="http://www.w3.org/2000/svg" xmlns:xlink="http://www.w3.org/1999/xlink">
    <!-- Generator: sketchtool 39 (31667) - http://www.bohemiancoding.com/sketch -->
    <title>976856CC-3659-4674-B105-C923F991F8C8</title>
    <desc>Created with sketchtool.</desc>
    <defs></defs>
    <g id="Page-1" stroke="none" stroke-width="1" fill="none" fill-rule="evenodd">
        <g id="Homepage" transform="translate(-397.000000, -844.000000)" fill="#3EB3E6">
            <g id="Waarom-brookz" transform="translate(252.000000, 755.000000)">
                <g id="txt" transform="translate(0.000000, 89.000000)">
                    <g id="waarom-3">
                        <g id="icon" transform="translate(145.000000, 0.000000)">
                            <g id="Слой_1">
                                <path d="M72.6222222,9.89206349 C70.8730159,9.89206349 69.4857143,11.2190476 69.3047619,12.9079365 L55.1904762,15.5015873 C54.5269841,13.631746 52.8380952,12.2444444 50.7873016,11.9428571 L50.6063492,7.66031746 C52.2349206,7.17777778 53.4412698,5.66984127 53.4412698,3.92063492 C53.4412698,1.74920635 51.6920635,0 49.5206349,0 C47.3492063,0 45.6603175,1.74920635 45.6603175,3.92063492 C45.6603175,5.85079365 47.047619,7.41904762 48.8571429,7.78095238 L49.0380952,12.0031746 C47.7111111,12.3047619 46.5650794,13.0285714 45.7809524,14.0539683 L34.4412698,8.2031746 C34.5015873,7.96190476 34.5015873,7.78095238 34.5015873,7.53968254 C34.5015873,5.73015873 32.9936508,4.22222222 31.184127,4.22222222 C29.3746032,4.22222222 27.8666667,5.73015873 27.8666667,7.53968254 C27.8666667,9.34920635 29.3746032,10.8571429 31.184127,10.8571429 C32.1492063,10.8571429 32.9936508,10.4349206 33.5968254,9.77142857 L44.9365079,15.6222222 C44.7555556,16.1650794 44.6952381,16.7079365 44.6952381,17.2507937 C44.6952381,18.3968254 45.0571429,19.4222222 45.6603175,20.3269841 L26.9619048,38.3015873 C26.0571429,37.6380952 24.9714286,37.215873 23.7650794,37.215873 C22.6190476,37.215873 21.5333333,37.5777778 20.6888889,38.1809524 L12.3650794,29.8571429 C12.847619,29.1333333 13.1492063,28.2888889 13.1492063,27.3238095 C13.1492063,24.8507937 11.0984127,22.8 8.62539683,22.8 C6.15238095,22.8 4.1015873,24.8507937 4.1015873,27.3238095 C4.1015873,29.7968254 6.15238095,31.847619 8.62539683,31.847619 C9.53015873,31.847619 10.3746032,31.6063492 11.0984127,31.1238095 L19.3619048,39.5079365 C18.6984127,40.4126984 18.3365079,41.4984127 18.3365079,42.7047619 C18.3365079,43.0666667 18.3968254,43.368254 18.4571429,43.6698413 L6.09206349,48.1333333 C5.48888889,47.2285714 4.46349206,46.6253968 3.31746032,46.6253968 C1.50793651,46.6253968 0,48.1333333 0,49.9428571 C0,51.752381 1.50793651,53.2603175 3.31746032,53.2603175 C5.12698413,53.2603175 6.57460317,51.8126984 6.57460317,49.9428571 L6.57460317,49.8222222 L19,45.2984127 C19.7238095,46.6253968 21.0507937,47.5904762 22.5587302,47.8920635 L22.3777778,55.0095238 C20.9904762,55.3714286 19.9650794,56.6984127 19.9650794,58.2063492 C19.9650794,60.015873 21.4730159,61.5238095 23.2825397,61.5238095 C25.0920635,61.5238095 26.6,60.015873 26.6,58.2063492 C26.6,56.6984127 25.5746032,55.431746 24.1873016,55.0095238 L24.368254,47.952381 C26.3587302,47.7111111 28.047619,46.4444444 28.7714286,44.6349206 L45.1174603,48.3746032 L45.1174603,48.5555556 C45.1174603,51.0285714 47.168254,53.0793651 49.6412698,53.0793651 C49.8825397,53.0793651 50.0634921,53.0793651 50.3047619,53.0190476 L51.631746,56.7587302 C49.9428571,57.6634921 48.8571429,59.4730159 48.8571429,61.5238095 C48.8571429,62.8507937 49.3396825,64.1174603 50.184127,65.0222222 L46.4444444,69.4857143 C46.0222222,69.3047619 45.6,69.184127 45.1174603,69.184127 C43.3079365,69.184127 41.8,70.6920635 41.8,72.5015873 C41.8,74.3111111 43.3079365,75.8190476 45.1174603,75.8190476 C46.9269841,75.8190476 48.4349206,74.3111111 48.4349206,72.5015873 C48.4349206,71.8380952 48.1936508,71.1746032 47.831746,70.631746 L51.5714286,66.168254 C52.3555556,66.6507937 53.3206349,66.8920635 54.2857143,66.8920635 C55.7936508,66.8920635 57.1809524,66.2888889 58.1460317,65.2634921 L67.1333333,71.4761905 C67.0126984,71.7777778 66.952381,72.1396825 66.952381,72.4412698 C66.952381,74.2507937 68.4603175,75.7587302 70.2698413,75.7587302 C72.0793651,75.7587302 73.5873016,74.2507937 73.5873016,72.4412698 C73.5873016,70.631746 72.0793651,69.1238095 70.2698413,69.1238095 C69.4253968,69.1238095 68.7015873,69.4253968 68.0984127,69.9079365 L59.1714286,63.6952381 C59.4730159,62.9714286 59.7142857,62.1873016 59.7142857,61.4031746 C59.7142857,58.3873016 57.3015873,55.9746032 54.2857143,55.9746032 C53.984127,55.9746032 53.6825397,56.0349206 53.3809524,56.0349206 L52.0539683,52.2952381 C53.3809524,51.5111111 54.2253968,50.0634921 54.2253968,48.4349206 C54.2253968,45.9619048 52.1746032,43.9111111 49.7015873,43.9111111 C47.8920635,43.9111111 46.3238095,44.9968254 45.6,46.5047619 L29.2539683,42.7650794 L29.2539683,42.4634921 C29.2539683,41.3174603 28.8920635,40.2920635 28.2888889,39.3873016 L46.9269841,21.4730159 C47.831746,22.1365079 48.9174603,22.5587302 50.1238095,22.5587302 C51.3301587,22.5587302 52.4761905,22.1365079 53.3809524,21.4730159 L61.8253968,29.4952381 C61.4634921,30.0984127 61.2825397,30.7619048 61.2825397,31.4857143 C61.2825397,33.6571429 63.031746,35.4063492 65.2031746,35.4063492 C67.3746032,35.4063492 69.1238095,33.6571429 69.1238095,31.4857143 C69.1238095,29.3142857 67.3746032,27.5650794 65.2031746,27.5650794 C64.4190476,27.5650794 63.6952381,27.8063492 63.031746,28.2285714 L54.5873016,20.2063492 C55.1904762,19.3619048 55.4920635,18.2761905 55.4920635,17.1904762 L55.4920635,17.1301587 L69.6063492,14.5365079 C70.1492063,15.6222222 71.2952381,16.4063492 72.5619048,16.4063492 C74.3714286,16.4063492 75.8793651,14.8984127 75.8793651,13.0888889 C75.8793651,11.2793651 74.431746,9.89206349 72.6222222,9.89206349 L72.6222222,9.89206349 Z M31.184127,9.10793651 C30.3396825,9.10793651 29.6761905,8.44444444 29.6761905,7.6 C29.6761905,6.75555556 30.3396825,6.09206349 31.184127,6.09206349 C32.0285714,6.09206349 32.6920635,6.75555556 32.6920635,7.6 C32.6920635,8.44444444 31.968254,9.10793651 31.184127,9.10793651 L31.184127,9.10793651 Z M3.25714286,51.4507937 C2.41269841,51.4507937 1.74920635,50.7873016 1.74920635,49.9428571 C1.74920635,49.0984127 2.41269841,48.4349206 3.25714286,48.4349206 C4.1015873,48.4349206 4.76507937,49.1587302 4.76507937,49.9428571 C4.76507937,50.7269841 4.1015873,51.4507937 3.25714286,51.4507937 L3.25714286,51.4507937 Z M70.2095238,71.1142857 C71.0539683,71.1142857 71.7174603,71.7777778 71.7174603,72.6222222 C71.7174603,73.4666667 71.0539683,74.1301587 70.2095238,74.1301587 C69.3650794,74.1301587 68.7015873,73.4666667 68.7015873,72.6222222 C68.7015873,71.7777778 69.3650794,71.1142857 70.2095238,71.1142857 L70.2095238,71.1142857 Z M44.9968254,74.1301587 C44.152381,74.1301587 43.4888889,73.4666667 43.4888889,72.6222222 C43.4888889,71.7777778 44.152381,71.1142857 44.9968254,71.1142857 C45.8412698,71.1142857 46.5047619,71.7777778 46.5047619,72.6222222 C46.5047619,73.4666667 45.7809524,74.1301587 44.9968254,74.1301587 L44.9968254,74.1301587 Z M57.784127,61.6444444 C57.784127,63.6349206 56.1555556,65.2634921 54.1650794,65.2634921 C52.1746032,65.2634921 50.5460317,63.6349206 50.5460317,61.6444444 C50.5460317,59.6539683 52.1746032,58.0253968 54.1650794,58.0253968 C56.1555556,58.0253968 57.784127,59.5936508 57.784127,61.6444444 L57.784127,61.6444444 Z M49.5809524,45.9619048 C51.0888889,45.9619048 52.2952381,47.168254 52.2952381,48.6761905 C52.2952381,50.184127 51.0888889,51.3904762 49.5809524,51.3904762 C48.0730159,51.3904762 46.8666667,50.184127 46.8666667,48.6761905 C46.8666667,47.168254 48.0730159,45.9619048 49.5809524,45.9619048 L49.5809524,45.9619048 Z M47.4698413,3.92063492 C47.4698413,2.77460317 48.4349206,1.80952381 49.5809524,1.80952381 C50.7269841,1.80952381 51.6920635,2.77460317 51.6920635,3.92063492 C51.6920635,5.06666667 50.7269841,6.03174603 49.5809524,6.03174603 C48.4349206,6.03174603 47.4698413,5.06666667 47.4698413,3.92063492 L47.4698413,3.92063492 Z M5.91111111,27.3238095 C5.91111111,25.815873 7.11746032,24.6095238 8.62539683,24.6095238 C10.1333333,24.6095238 11.3396825,25.815873 11.3396825,27.3238095 C11.3396825,28.831746 10.1333333,30.0380952 8.62539683,30.0380952 C7.11746032,30.0380952 5.91111111,28.831746 5.91111111,27.3238095 L5.91111111,27.3238095 Z M24.7301587,58.2666667 C24.7301587,59.1111111 24.0666667,59.7746032 23.2222222,59.7746032 C22.3777778,59.7746032 21.7142857,59.1111111 21.7142857,58.2666667 C21.7142857,57.4222222 22.3777778,56.7587302 23.2222222,56.7587302 C24.0666667,56.7587302 24.7301587,57.4825397 24.7301587,58.2666667 L24.7301587,58.2666667 Z M23.7047619,46.3238095 C21.7142857,46.3238095 20.0857143,44.6952381 20.0857143,42.7047619 C20.0857143,40.7142857 21.7142857,39.0857143 23.7047619,39.0857143 C25.6952381,39.0857143 27.3238095,40.7142857 27.3238095,42.7047619 C27.3238095,44.6952381 25.7555556,46.3238095 23.7047619,46.3238095 L23.7047619,46.3238095 Z M46.5047619,17.3111111 C46.5047619,15.3206349 48.1333333,13.6920635 50.1238095,13.6920635 C52.1142857,13.6920635 53.7428571,15.3206349 53.7428571,17.3111111 C53.7428571,19.3015873 52.1142857,20.9301587 50.1238095,20.9301587 C48.1333333,20.9301587 46.5047619,19.3619048 46.5047619,17.3111111 L46.5047619,17.3111111 Z M67.3142857,31.6666667 C67.3142857,32.8126984 66.3492063,33.7777778 65.2031746,33.7777778 C64.0571429,33.7777778 63.0920635,32.8126984 63.0920635,31.6666667 C63.0920635,30.5206349 64.0571429,29.5555556 65.2031746,29.5555556 C66.3492063,29.5555556 67.3142857,30.5206349 67.3142857,31.6666667 L67.3142857,31.6666667 Z M72.6222222,14.7174603 C71.7777778,14.7174603 71.1142857,14.0539683 71.1142857,13.2095238 C71.1142857,12.3650794 71.7777778,11.7015873 72.6222222,11.7015873 C73.4666667,11.7015873 74.1301587,12.3650794 74.1301587,13.2095238 C74.1301587,14.0539683 73.4666667,14.7174603 72.6222222,14.7174603 L72.6222222,14.7174603 Z" id="Shape"></path>
                            </g>
                        </g>
                    </g>
                </g>
            </g>
        </g>
    </g>
</svg>