<svg xmlns="http://www.w3.org/2000/svg" xmlns:xlink="http://www.w3.org/1999/xlink" width="20" height="19" viewBox="0 0 20 19"><defs><path id="kmfha" d="M1270 34a1 1 0 1 0 0-2 1 1 0 0 0 0 2zm4 0a1 1 0 1 0 0-2 1 1 0 0 0 0 2zm4 0a1 1 0 1 0 0-2 1 1 0 0 0 0 2zm-12-7h16a1 1 0 0 1 1 1v10a1 1 0 0 1-1 1h-1.82l-3.18 3.38V39h-11a1 1 0 0 1-1-1V28a1 1 0 0 1 1-1zm10 18l4.7-5h1.3a2 2 0 0 0 2-2V28a2 2 0 0 0-2-2h-16a2 2 0 0 0-2 2v10c0 1.1.9 2 2 2h10v5z"/></defs><g><g transform="translate(-1264 -26)"><use fill="#a4b0d3" xlink:href="#kmfha"/></g></g></svg>