<svg xmlns="http://www.w3.org/2000/svg" xmlns:xlink="http://www.w3.org/1999/xlink" width="139" height="67" viewBox="0 0 139 67"><defs><path id="l4bza" d="M809.24 404.8a6.4 6.4 0 0 0-1.82-1.66c.3-.46.48-.86.51-.93l5.12-17.91a2.56 2.56 0 0 0-2.56-2.56h-38.37a2.56 2.56 0 0 0-2.56 2.56l5.12 17.9c0 .04.2.46.51.94-.7.42-1.3.97-1.8 1.63-.8-1.2-1.22-2.42-1.27-2.55L767 384.3c0-2.82 2.3-5.12 5.12-5.12h8.48-3.56l13.03-13.02a1.99 1.99 0 0 1 2.83 0l13.02 13.02h-3.56l-10.17-10.17a1 1 0 0 0-1.42 0l-10.17 10.17h29.9c2.81 0 5.1 2.3 5.1 5.12l-5.1 17.9c-.01.02-.41 1.32-1.26 2.6zm-10.89.99l.01-.03v.03zm-.45 1.23zm-.07.3zm-23.16 1.28a3.84 3.84 0 1 0 7.69 0 3.84 3.84 0 0 0-7.69 0zm25.59 0a3.84 3.84 0 1 0 7.68 0 3.84 3.84 0 0 0-7.68 0zm-2.56 0c0-.43.04-.86.13-1.28h-13.05a6.4 6.4 0 1 1-12.67 1.28 6.4 6.4 0 0 1 11.52-3.83h15.35a6.4 6.4 0 1 0-1.28 3.83z"/><path id="l4bzb" d="M747.64 387.6l-4.94-5.02c-.35-.35-.35-1.06 0-1.41.35-.35.82-.35 1.17 0l5.26 5.27c.35.35.35.81 0 1.17-.35.35-1.14.35-1.49 0z"/><path id="l4bzc" d="M742.7 386.17l4.94-4.68c.35-.35 1.14-.67 1.5-.32.34.35.34 1.4 0 1.76l-5.27 4.68c-.35.35-.82.35-1.17 0-.35-.36-.35-1.08 0-1.44z"/><path id="l4bzd" d="M728.7 375.9h-6.9c-.46 0-.9-.4-.9-.88 0-.46.44-.87.9-.87h6.9c.48 0 .97.4.97.87s-.5.88-.96.88z"/><path id="l4bze" d="M724.4 378.48v-6.83c0-.47.21-1 .92-1.01.77.03.84.54.84 1v6.84c0 .47-.28.93-.84.93h-.1c-.66 0-.81-.46-.81-.93z"/><path id="l4bzf" d="M756.59 365.37a1.76 1.76 0 1 1 3.5 0 1.76 1.76 0 0 1-3.5 0z"/><path id="l4bzg" d="M740.2 409.84a1.76 1.76 0 1 1 3.52 0 1.76 1.76 0 0 1-3.51 0z"/><path id="l4bzh" d="M740.36 360.1l-1.78-2.66c-.18-.23-.18-.88 0-1.17l1.78-2.6c.29-.47.87-.47 1.17 0l1.73 2.6c.17.23.17.88 0 1.17l-1.73 2.67c-.24.47-.88.47-1.17 0z"/><path id="l4bzi" d="M838.34 395.21l-1.73-2.59c-.18-.23-.18-.88 0-1.17l1.73-2.67c.3-.47.88-.47 1.17 0l1.78 2.67c.17.24.17.88 0 1.17l-1.78 2.6a.71.71 0 0 1-1.17 0z"/><path id="l4bzj" d="M852.57 367.98l4.95 4.74c.71.62.67 1.34.32 1.7-.35.34-1.14.08-1.5-.27l-4.94-5c-.35-.35-.35-.82 0-1.17s.82-.35 1.17 0z"/><path id="l4bzk" d="M857.84 369.15l-5.27 5.26c-.35.35-.82.35-1.17 0s-.47-.81 0-1.43l5.23-5.27c.56-.23.86-.08 1.2.27.36.35.36.82 0 1.17z"/><path id="l4bzl" d="M815.71 352.5h7.02c.47 0 .85.4.85.86.01.6-.38.9-.85.9h-7.02c-.46 0-.9-.32-.9-.9 0-.47.44-.86.9-.86z"/><path id="l4bzm" d="M820.07 349.86v7.04c0 .47-.29.87-.87.87-.47 0-.88-.16-.88-.87v-7.04c0-.47.2-.87.88-.87.47 0 .87.4.87.87z"/><path id="l4bzn" d="M843.48 350.16a1.76 1.76 0 1 1 3.5 0 1.76 1.76 0 0 1-3.5 0z"/><path id="l4bzo" d="M828.26 368.88a1.76 1.76 0 1 1 3.51 0 1.76 1.76 0 0 1-3.5 0z"/></defs><g><g transform="translate(-720 -348)"><use fill="#595ceb" xlink:href="#l4bza"/></g><g opacity=".28" transform="translate(-720 -348)"><g opacity=".28"><g opacity=".28"><use fill="#595ceb" xlink:href="#l4bzb"/></g><g opacity=".28"><use fill="#595ceb" xlink:href="#l4bzc"/></g></g><g opacity=".28"><g opacity=".28"><use fill="#595ceb" xlink:href="#l4bzd"/></g><g opacity=".28"><use fill="#595ceb" xlink:href="#l4bze"/></g></g><g opacity=".28"><use fill="#595ceb" xlink:href="#l4bzf"/></g><g opacity=".28"><use fill="#595ceb" xlink:href="#l4bzg"/></g><g opacity=".28"><use fill="#595ceb" xlink:href="#l4bzh"/></g><g opacity=".28"><use fill="#595ceb" xlink:href="#l4bzi"/></g><g opacity=".28"><g opacity=".28"><use fill="#595ceb" xlink:href="#l4bzj"/></g><g opacity=".28"><use fill="#595ceb" xlink:href="#l4bzk"/></g></g><g opacity=".28"><g opacity=".28"><use fill="#595ceb" xlink:href="#l4bzl"/></g><g opacity=".28"><use fill="#595ceb" xlink:href="#l4bzm"/></g></g><g opacity=".28"><use fill="#595ceb" xlink:href="#l4bzn"/></g><g opacity=".28"><use fill="#595ceb" xlink:href="#l4bzo"/></g></g></g></svg>