<?xml version="1.0" ?><svg id="Layer_1" style="enable-background:new 0 0 512 512;" version="1.1" viewBox="0 0 512 512" xml:space="preserve" xmlns="http://www.w3.org/2000/svg" xmlns:xlink="http://www.w3.org/1999/xlink"><style type="text/css">
	.st0{fill:#CF881B;}
	.st1{fill:#FBCA19;}
	.st2{fill:#F6A119;}
</style><g><path class="st0" d="M159.2,307.8C76,307.8,8.3,240.1,8.3,156.9S76,6,159.2,6s150.9,67.7,150.9,150.9S242.4,307.8,159.2,307.8z    M159.2,16.2c-77.6,0-140.7,63.1-140.7,140.7s63.1,140.7,140.7,140.7s140.7-63.1,140.7-140.7S236.8,16.2,159.2,16.2z"/><path class="st1" d="M159.2,16.2c-77.6,0-140.7,63.1-140.7,140.7s63.1,140.7,140.7,140.7s140.7-63.1,140.7-140.7   S236.8,16.2,159.2,16.2z"/><g><circle class="st2" cx="159.2" cy="156.9" r="120.2"/></g><path class="st1" d="M207.2,163c-5.1-5.3-11.9-8.6-20.3-9.6V153c6.8-1.9,12.3-5.4,16.7-10.3c4.4-5,6.5-10.7,6.5-17.3   c0-9.1-3.6-16.2-10.7-21.2c-6-4.2-14.2-6.6-24.6-7.3V78.5h-16.6v18.2h-14.5V78.5h-17.5v18.2h-0.9h-21.7v16.7h21.7v89.1h-21.7v16.7   h21.7h0.9v15.4h17.5v-15.4h14.5v16.3h16.6v-16.4c11.8-0.6,21.2-3.8,28.3-9.7c7.8-6.6,11.7-15.5,11.7-26.7   C214.8,174.8,212.3,168.3,207.2,163z M152.1,117h10.1c13.1,0,19.6,4.5,19.6,13.5c0,4.8-1.6,8.6-4.8,11.4c-3.2,2.8-7.6,4.1-13.1,4.1   h-11.8V117z M181.3,194.3c-3.5,3-8.4,4.4-14.6,4.4h-14.6v-32.3h14.7c6.2,0,11,1.4,14.5,4.2c3.5,2.8,5.2,6.6,5.2,11.5   C186.5,187.3,184.8,191.3,181.3,194.3z"/><g><path class="st0" d="M125,140.6c0.1,0,0.2,0,0.2,0v-27.3h-21.6L125,140.6z"/><path class="st0" d="M181.3,194.3c3.5-3,5.3-7,5.3-12.1c0-4.9-1.7-8.7-5.2-11.5c-3.5-2.8-8.3-4.2-14.5-4.2h-14.7v32.3h14.6    C172.9,198.7,177.7,197.3,181.3,194.3z"/><path class="st0" d="M177,141.9c3.2-2.8,4.8-6.6,4.8-11.4c0-9-6.5-13.5-19.6-13.5h-10.1v29h11.8C169.5,146,173.8,144.6,177,141.9z    "/><path class="st0" d="M278.6,143.5l-87.3-43.8l-0.6,0.1c3.2,1.1,6.1,2.6,8.5,4.3c7.2,5,10.7,12.1,10.7,21.2    c0,6.6-2.2,12.4-6.5,17.3c-4.4,5-9.9,8.4-16.7,10.3v0.3c8.5,1.1,15.3,4.3,20.3,9.6c5.1,5.3,7.6,11.9,7.6,19.5    c0,11.2-3.9,20.1-11.7,26.7c-7.1,6-16.6,9.2-28.3,9.7v16.4h-16.6v-16.3h-14.5v15.4h-17.5v-15.4h-0.9h-21.7l45,57.6    c3.5,0.3,7,0.5,10.6,0.5c66.4,0,120.2-53.8,120.2-120.2C279.4,152.4,279.1,147.9,278.6,143.5z"/><polygon class="st0" points="143.6,78.9 143.6,96.7 157.5,96.7   "/></g></g><g><path class="st0" d="M352.8,397.5c-83.2,0-150.9-67.7-150.9-150.9S269.6,95.8,352.8,95.8s150.9,67.7,150.9,150.9   S436,397.5,352.8,397.5z M352.8,106c-77.6,0-140.7,63.1-140.7,140.7s63.1,140.7,140.7,140.7s140.7-63.1,140.7-140.7   S430.4,106,352.8,106z"/><path class="st1" d="M352.8,106c-77.6,0-140.7,63.1-140.7,140.7s63.1,140.7,140.7,140.7s140.7-63.1,140.7-140.7   S430.4,106,352.8,106z"/><g><circle class="st2" cx="352.8" cy="246.6" r="120.2"/></g><path class="st1" d="M400.8,252.7c-5.1-5.3-11.9-8.6-20.3-9.6v-0.3c6.8-1.9,12.3-5.4,16.7-10.3c4.4-5,6.5-10.7,6.5-17.3   c0-9.1-3.6-16.2-10.7-21.2c-6-4.2-14.2-6.6-24.6-7.3v-18.4h-16.6v18.2h-14.5v-18.2h-17.5v18.2h-0.9h-21.7v16.7h21.7v89.1h-21.7   v16.7h21.7h0.9v15.4h17.5v-15.4h14.5v16.3h16.6v-16.4c11.8-0.6,21.2-3.8,28.3-9.7c7.8-6.6,11.7-15.5,11.7-26.7   C408.4,264.6,405.9,258.1,400.8,252.7z M345.7,206.7h10.1c13.1,0,19.6,4.5,19.6,13.5c0,4.8-1.6,8.6-4.8,11.4   c-3.2,2.8-7.6,4.1-13.1,4.1h-11.8V206.7z M374.9,284.1c-3.5,3-8.4,4.4-14.6,4.4h-14.6v-32.3h14.7c6.2,0,11,1.4,14.5,4.2   c3.5,2.8,5.2,6.6,5.2,11.5C380.2,277.1,378.4,281.1,374.9,284.1z"/><g><path class="st0" d="M318.6,230.4c0.1,0,0.2,0,0.2,0v-27.3h-21.6L318.6,230.4z"/><path class="st0" d="M374.9,284.1c3.5-3,5.3-7,5.3-12.1c0-4.9-1.7-8.7-5.2-11.5s-8.3-4.2-14.5-4.2h-14.7v32.3h14.6    C366.5,288.5,371.4,287,374.9,284.1z"/><path class="st0" d="M370.6,231.6c3.2-2.8,4.8-6.6,4.8-11.4c0-9-6.5-13.5-19.6-13.5h-10.1v29h11.8    C363.1,235.8,367.4,234.4,370.6,231.6z"/><path class="st0" d="M472.3,233.3L385,189.5l-0.6,0.1c3.2,1.1,6.1,2.6,8.5,4.3c7.2,5,10.7,12.1,10.7,21.2c0,6.6-2.2,12.4-6.5,17.3    c-4.4,5-9.9,8.4-16.7,10.3v0.3c8.5,1.1,15.3,4.3,20.3,9.6c5.1,5.3,7.6,11.9,7.6,19.5c0,11.2-3.9,20.1-11.7,26.7    c-7.1,6-16.6,9.2-28.3,9.7v16.4h-16.6v-16.3h-14.5v15.4h-17.5v-15.4h-0.9h-21.7l45,57.6c3.5,0.3,7,0.5,10.6,0.5    c66.4,0,120.2-53.8,120.2-120.2C473,242.1,472.7,237.7,472.3,233.3z"/><polygon class="st0" points="337.2,168.7 337.2,186.4 351.1,186.4   "/></g></g><g><path class="st0" d="M191.5,506c-83.2,0-150.9-67.7-150.9-150.9s67.7-150.9,150.9-150.9s150.9,67.7,150.9,150.9   S274.7,506,191.5,506z M191.5,214.5c-77.6,0-140.7,63.1-140.7,140.7s63.1,140.7,140.7,140.7s140.7-63.1,140.7-140.7   S269,214.5,191.5,214.5z"/><path class="st1" d="M191.5,214.5c-77.6,0-140.7,63.1-140.7,140.7s63.1,140.7,140.7,140.7s140.7-63.1,140.7-140.7   S269,214.5,191.5,214.5z"/><g><circle class="st2" cx="191.5" cy="355.1" r="120.2"/></g><path class="st1" d="M239.5,361.2c-5.1-5.3-11.9-8.6-20.3-9.6v-0.3c6.8-1.9,12.3-5.4,16.7-10.3c4.4-5,6.5-10.7,6.5-17.3   c0-9.1-3.6-16.2-10.7-21.2c-6-4.2-14.2-6.6-24.6-7.3v-18.4h-16.6v18.2h-14.5v-18.2h-17.5v18.2h-0.9h-21.7v16.7h21.7v89.1h-21.7   v16.7h21.7h0.9v15.4h17.5v-15.4h14.5v16.3H207v-16.4c11.8-0.6,21.2-3.8,28.3-9.7c7.8-6.6,11.7-15.5,11.7-26.7   C247.1,373.1,244.6,366.6,239.5,361.2z M184.4,315.2h10.1c13.1,0,19.6,4.5,19.6,13.5c0,4.8-1.6,8.6-4.8,11.4   c-3.2,2.8-7.6,4.1-13.1,4.1h-11.8V315.2z M213.5,392.5c-3.5,3-8.4,4.4-14.6,4.4h-14.6v-32.3h14.7c6.2,0,11,1.4,14.5,4.2   s5.2,6.6,5.2,11.5C218.8,385.5,217.1,389.6,213.5,392.5z"/><g><path class="st0" d="M157.3,338.8c0.1,0,0.2,0,0.2,0v-27.3h-21.6L157.3,338.8z"/><path class="st0" d="M213.5,392.5c3.5-3,5.3-7,5.3-12.1c0-4.9-1.7-8.7-5.2-11.5c-3.5-2.8-8.3-4.2-14.5-4.2h-14.7V397H199    C205.2,397,210,395.5,213.5,392.5z"/><path class="st0" d="M209.3,340.1c3.2-2.8,4.8-6.6,4.8-11.4c0-9-6.5-13.5-19.6-13.5h-10.1v29h11.8    C201.8,344.2,206.1,342.8,209.3,340.1z"/><path class="st0" d="M310.9,341.7L223.7,298l-0.6,0.1c3.2,1.1,6.1,2.6,8.5,4.3c7.2,5,10.7,12.1,10.7,21.2c0,6.6-2.2,12.4-6.5,17.3    c-4.4,5-9.9,8.4-16.7,10.3v0.3c8.5,1.1,15.3,4.3,20.3,9.6c5.1,5.3,7.6,11.9,7.6,19.5c0,11.2-3.9,20.1-11.7,26.7    c-7.1,6-16.6,9.2-28.3,9.7v16.4h-16.6v-16.3h-14.5v15.4h-17.5v-15.4h-0.9h-21.7l45,57.6c3.5,0.3,7,0.5,10.6,0.5    c66.4,0,120.2-53.8,120.2-120.2C311.7,350.6,311.4,346.1,310.9,341.7z"/><polygon class="st0" points="175.9,277.2 175.9,294.9 189.8,294.9   "/></g></g></svg>