<?xml version="1.0" ?><!DOCTYPE svg  PUBLIC '-//W3C//DTD SVG 1.1//EN'  'http://www.w3.org/Graphics/SVG/1.1/DTD/svg11.dtd'><svg enable-background="new 0.5 0.5 128 128" height="128px" id="Layer_1" version="1.1" viewBox="0.5 0.5 128 128" width="128px" xml:space="preserve" xmlns="http://www.w3.org/2000/svg" xmlns:xlink="http://www.w3.org/1999/xlink"><g><circle cx="52.158" cy="32.642" fill="#F8A01C" r="2"/><circle cx="43.508" cy="32.792" fill="#F8A01C" r="2"/><path d="M43.258,39.726c0.596,1.48,2.407,2.566,4.575,2.566c2.169,0,3.979-1.085,4.575-2.566   c-1.306,0.389-2.88,0.616-4.575,0.616S44.563,40.114,43.258,39.726z" fill="#F8A01C"/><path d="M52.617,11.733c-13.459-2.656-26.523,6.102-29.179,19.562c-2.656,13.458,6.103,26.522,19.563,29.178   c4.714,0.931,9.379,0.455,13.565-1.127l10.687,9.235l0.068-17.111c2.359-2.991,4.068-6.564,4.856-10.558   C74.835,27.451,66.077,14.389,52.617,11.733z M47.098,47.385c-6.602-0.58-11.484-6.4-10.904-13.003s6.401-11.484,13.003-10.904   c6.603,0.579,11.484,6.4,10.905,13.002C59.521,43.082,53.701,47.964,47.098,47.385z" fill="#F8A01C"/></g><g><path d="M90.508,77.417c0.596,1.48,2.408,2.566,4.576,2.566s3.979-1.085,4.574-2.566   c-1.305,0.389-2.879,0.616-4.574,0.616S91.814,77.806,90.508,77.417z" fill="#F47E2F"/><path d="M116.189,66.541c-3.455-11.694-15.736-18.373-27.432-14.918C77.063,55.08,70.385,67.359,73.84,79.056   c1.211,4.097,3.506,7.573,6.48,10.219l-2.869,12.223l13.504-6.998c3.326,0.626,6.846,0.5,10.316-0.526   C112.967,90.518,119.645,78.237,116.189,66.541z M95.084,85.084c-6.627,0-12-5.372-12-12s5.373-12,12-12s12,5.372,12,12   S101.711,85.084,95.084,85.084z" fill="#F47E2F"/><circle cx="90.759" cy="70.483" fill="#F47E2F" r="2"/><circle cx="99.408" cy="70.333" fill="#F47E2F" r="2"/></g><g><path d="M48.855,93.5c-0.596,1.48-2.407,2.566-4.575,2.566c-2.169,0-3.979-1.085-4.575-2.566   c1.306,0.389,2.88,0.616,4.575,0.616S47.55,93.889,48.855,93.5z" fill="#F05425"/><path d="M43.716,111.058c3.618,0.115,7.055-0.653,10.115-2.101l14.835,3.355l-5.868-11.1   c2.208-3.313,3.549-7.256,3.684-11.525c0.385-12.19-9.182-22.381-21.37-22.768c-12.19-0.385-22.383,9.183-22.768,21.371   C21.96,100.48,31.528,110.672,43.716,111.058z M32.81,92.317c-1.676-6.412,2.162-12.968,8.575-14.645   c6.412-1.677,12.969,2.162,14.645,8.574c1.676,6.413-2.164,12.97-8.575,14.646C41.042,102.568,34.486,98.73,32.81,92.317z" fill="#F05425"/><circle cx="48.605" cy="86.566" fill="#F05425" r="2"/><circle cx="39.956" cy="86.416" fill="#F05425" r="2"/></g></svg>