<?xml version="1.0" ?><!DOCTYPE svg  PUBLIC '-//W3C//DTD SVG 1.1//EN'  'http://www.w3.org/Graphics/SVG/1.1/DTD/svg11.dtd'><svg enable-background="new 0 0 256 256" height="256px" id="Layer_1" version="1.1" viewBox="0 0 256 256" width="256px" xml:space="preserve" xmlns="http://www.w3.org/2000/svg" xmlns:xlink="http://www.w3.org/1999/xlink"><g><g><polygon fill="#FAA819" points="227.93,65.908 249.398,2 182.299,2.147 198.195,24.324 130.982,72.896 96.125,55.66      9.732,180.977 24.914,180.977 103.072,83.105 132.955,100.879 212.033,43.693    "/><path d="M4.002,233.994H8v16.521C8,252.738,9.789,254,11.998,254h64c2.209,0,4.002-1.262,4.002-3.484v-20.092     c0-2.223-1.793-4.434-4.002-4.434H72v-15.658c0-2.223-1.791-4.348-4-4.348H4.002c-2.209,0-4.002,2.125-4.002,4.348v20.09     C0,232.645,1.793,233.994,4.002,233.994z M42,245.998H16v-12.004h26V245.998z M52,245.998h-4v-12.004h4V245.998z M72,245.998h-8     v-12.004h4h4V245.998z M56,213.988h8v12.002h-8V213.988z M40,213.988h4v12.002h-4V213.988z M8,213.988h26v12.002H11.998H8     V213.988z" fill="#FAA819"/><path d="M179.988,225.99c-2.209,0-3.988,2.211-3.988,4.434v20.092c0,2.223,1.779,3.484,3.988,3.484h64     c2.209,0,4.012-1.262,4.012-3.484v-16.521h4c2.209,0,4-1.35,4-3.572v-20.09c0-2.223-1.791-4.348-4-4.348h-4v-15.746     c0-0.01-0.002-0.021-0.002-0.031c0-0.012,0.002-0.021,0.002-0.033v-20.092v-20.094c0-2.221-1.803-4.021-4.012-4.021H238v-16.07     c0-2.221-1.791-3.936-4-3.936h-64c-2.209,0-4,1.715-4,3.936v20.092c0,2.223,1.791,3.98,4,3.98h6v16.113v20.092     c0,0.012,0.004,0.021,0.004,0.033c0,0.01-0.004,0.021-0.004,0.031v20.094c0,2.221,1.779,3.656,3.988,3.656H184v12.002H179.988z      M210,245.998h-26v-12.004h4h22V245.998z M220,245.998h-4v-12.004h4V245.998z M184,205.984V193.98h26v12.004h-22H184z      M216,153.969h4v12.004h-4V153.969z M240,185.979h-8v-12.004h8V185.979z M220,173.975v12.004h-4v-12.004H220z M210,185.979h-26     v-12.004h26V185.979z M216,193.98h4v12.004h-4V193.98z M224,213.988h4v12.002h-4V213.988z M240,245.998h-8v-12.004h8V245.998z      M248,225.99h-4.012H240v-12.002h3.988H248V225.99z M232,205.984V193.98h8v12.004H232z M240,165.973h-8v-12.004h2h6V165.973z      M222,133.963h8v12.004h-8V133.963z M206,133.963h4v12.004h-4V133.963z M174,133.963h26v12.004h-20.012H174V133.963z      M210,153.969v12.004h-26v-12.004H210z M192,213.988h26v12.002h-26V213.988z" fill="#FAA819"/><path d="M160,193.98c2.209,0,4-1.52,4-3.742v-20.092c0-2.221-1.791-4.174-4-4.174H96c-2.209,0-4,1.953-4,4.174     v15.832h-2.002c-2.209,0-3.998,2.039-3.998,4.26v20.094c0,2.221,1.789,3.656,3.998,3.656H92v16.434v0.002l0,0v20.092     c0,2.223,1.791,3.484,4,3.484h64c2.209,0,4-1.262,4-3.484v-20.092l0,0v-0.002v-20.09c0-2.223-1.791-4.348-4-4.348h-2V193.98H160z      M148,173.975h8v12.004h-2.002H148V173.975z M132,173.975h4v12.004h-4V173.975z M156,213.988v12.002h-8v-12.002h5.998H156z      M136,225.99h-4v-12.002h4V225.99z M130,205.984h-4V193.98h4V205.984z M94,205.984V193.98h2h24v12.004H96H94z M100,173.975h26     v12.004h-26V173.975z M126,213.988v12.002h-26v-12.002H126z M126,245.998h-26v-12.004h26V245.998z M136,245.998h-4v-12.004h4     V245.998z M156,245.998h-8v-12.004h8V245.998z M150,205.984h-8V193.98h8V205.984z" fill="#FAA819"/></g></g></svg>