<?xml version="1.0" ?><!DOCTYPE svg  PUBLIC '-//W3C//DTD SVG 1.1//EN'  'http://www.w3.org/Graphics/SVG/1.1/DTD/svg11.dtd'><svg enable-background="new 0 0 32 32" height="32px" id="Layer_1" version="1.1" viewBox="0 0 32 32" width="32px" xml:space="preserve" xmlns="http://www.w3.org/2000/svg" xmlns:cc="http://creativecommons.org/ns#" xmlns:dc="http://purl.org/dc/elements/1.1/" xmlns:inkscape="http://www.inkscape.org/namespaces/inkscape" xmlns:rdf="http://www.w3.org/1999/02/22-rdf-syntax-ns#" xmlns:sodipodi="http://sodipodi.sourceforge.net/DTD/sodipodi-0.dtd" xmlns:svg="http://www.w3.org/2000/svg" xmlns:xlink="http://www.w3.org/1999/xlink"><g><rect fill="#EEEEEE" height="32" width="22" x="5"/><rect fill="#3E8DB8" height="4" width="4" x="21" y="26"/><rect fill="#3E8DB8" height="4" width="4" x="7" y="26"/><rect fill="#7E7F7F" height="2" width="13" x="3" y="30"/><rect fill="#7E7F7F" height="2" width="13" x="16" y="30"/><rect fill="#3E8DB8" height="6" width="6" x="13" y="26"/><rect fill="#3E8DB8" height="4" width="6" x="13" y="8"/><rect fill="#3E8DB8" height="4" width="6" x="13" y="14"/><rect fill="#3E8DB8" height="4" width="6" x="13" y="20"/><rect fill="#3E8DB8" height="4" width="6" x="13" y="2"/><rect fill="#3E8DB8" height="4" width="4" x="7" y="8"/><rect fill="#3E8DB8" height="4" width="4" x="21" y="8"/><polyline fill="#3E8DB8" points="11,14 7,14 7,18 11,18  "/><rect fill="#3E8DB8" height="4" width="4" x="21" y="14"/><rect fill="#3E8DB8" height="4" width="4" x="21" y="20"/><rect fill="#3E8DB8" height="4" width="4" x="7" y="20"/><rect fill="#3E8DB8" height="4" width="4" x="7" y="2"/><rect fill="#3E8DB8" height="4" width="4" x="21" y="2"/></g></svg>