<?xml version="1.0" ?><!DOCTYPE svg  PUBLIC '-//W3C//DTD SVG 1.1//EN'  'http://www.w3.org/Graphics/SVG/1.1/DTD/svg11.dtd'><svg enable-background="new 0 0 128 128" height="128px" id="Layer_1" version="1.1" viewBox="0 0 128 128" width="128px" xml:space="preserve" xmlns="http://www.w3.org/2000/svg" xmlns:xlink="http://www.w3.org/1999/xlink"><path d="M53.927,64.494c1.805,5.792,5.996,10.156,10.402,10.156h0.229c4.404,0,8.594-4.364,10.402-10.155  c0.965-0.423,2.031-1.46,2.455-3.64c0.32-1.646,0.285-3.813-0.518-4.94c-0.141-0.201-0.307-0.361-0.494-0.485  c0.756-1.793,0.385-5.2-0.555-7.498c-1.295-3.16-3.896-5.856-9.629-6.553c-5.738-0.697-7.188,1.529-7.188,1.529  s-3.977,0.961-5.889,4.787c-1.666,3.33-0.932,6.914-0.719,7.78c-0.16,0.118-0.309,0.262-0.436,0.439  c-0.803,1.128-0.838,3.294-0.52,4.94C51.896,63.035,52.96,64.071,53.927,64.494" fill="#064A76"/><path d="M90.175,86.876c-2.686-8.871-9.035-10.784-12.166-11.247c-1.693-0.251-4.154-1.913-5.009-2.562  c-2.421,1.987-4.527,4.5-8.25,4.5c-3.826,0-6.691-2.787-9.125-4.875c-0.841,0.678-2.903,2.655-4.745,2.929  c-3.127,0.463-9.48,2.384-12.17,11.255c-1.996,6.588-1.744,10.094-1.637,10.939c0.018,0.135,0.031,0.302,0.031,0.354  c0,2.672,12.344,5.972,27.418,5.972s27.416-3.298,27.416-5.968c0-0.053,0.018-0.272,0.035-0.509  C92.046,96.605,92.071,93.131,90.175,86.876z" fill="#064A76"/><polygon fill="#F8A01C" points="69,27.525 64,35.359 59,27.525 62,27.525 62,11.859 66,11.859 66,27.525 "/><polygon fill="#F47E2F" points="34.398,47.871 43.474,49.875 41.47,40.8 39.349,42.922 28.271,31.844 25.442,34.672 36.521,45.75   "/><polygon fill="#F47E2F" points="93.602,47.871 84.526,49.875 86.53,40.8 88.651,42.922 99.729,31.844 102.558,34.672 91.479,45.75   "/><polygon fill="#F05425" points="98.251,62.859 90.417,67.859 98.251,72.859 98.251,69.859 113.917,69.859 113.917,65.859   98.251,65.859 "/><polygon fill="#F05425" points="29.749,62.859 37.583,67.859 29.749,72.859 29.749,69.859 14.083,69.859 14.083,65.859   29.749,65.859 "/></svg>