<?xml version="1.0" ?><svg enable-background="new 0 0 515.91 728.5" height="512" id="Layer_1" version="1.1" viewBox="0 0 512.00003 512" width="512" xml:space="preserve" xmlns="http://www.w3.org/2000/svg" xmlns:cc="http://creativecommons.org/ns#" xmlns:dc="http://purl.org/dc/elements/1.1/" xmlns:inkscape="http://www.inkscape.org/namespaces/inkscape" xmlns:rdf="http://www.w3.org/1999/02/22-rdf-syntax-ns#" xmlns:sodipodi="http://sodipodi.sourceforge.net/DTD/sodipodi-0.dtd" xmlns:svg="http://www.w3.org/2000/svg"><defs id="defs7"/><g id="g5942" transform="translate(-5792.4167,-2707.0721)"><path d="m 3776.7217,2330.9358 c 0,19.5972 -15.8867,35.4839 -35.4839,35.4839 -19.5972,0 -35.4839,-15.8867 -35.4839,-35.4839 0,-19.5972 15.8867,-35.4839 35.4839,-35.4839 19.5972,0 35.4839,15.8867 35.4839,35.4839 z" id="path5902" style="fill:#00a1f1;fill-opacity:1;fill-rule:nonzero;stroke:none" transform="matrix(-0.55737499,-0.96119895,0.96119895,-0.55737499,5682.6291,7816.5714)"/><path d="m 3776.7217,2330.9358 c 0,19.5972 -15.8867,35.4839 -35.4839,35.4839 -19.5972,0 -35.4839,-15.8867 -35.4839,-35.4839 0,-19.5972 15.8867,-35.4839 35.4839,-35.4839 19.5972,0 35.4839,15.8867 35.4839,35.4839 z" id="path5904" style="fill:#00a1f1;fill-opacity:1;fill-rule:nonzero;stroke:none" transform="matrix(-0.55737499,-0.96119895,0.96119895,-0.55737499,5823.007,7758.8185)"/><path d="m 3776.7217,2330.9358 c 0,19.5972 -15.8867,35.4839 -35.4839,35.4839 -19.5972,0 -35.4839,-15.8867 -35.4839,-35.4839 0,-19.5972 15.8867,-35.4839 35.4839,-35.4839 19.5972,0 35.4839,15.8867 35.4839,35.4839 z" id="path5906" style="fill:#00a1f1;fill-opacity:1;fill-rule:nonzero;stroke:none" transform="matrix(-0.55737499,-0.96119895,0.96119895,-0.55737499,5963.3849,7776.5808)"/><path d="m 3776.7217,2330.9358 c 0,19.5972 -15.8867,35.4839 -35.4839,35.4839 -19.5972,0 -35.4839,-15.8867 -35.4839,-35.4839 0,-19.5972 15.8867,-35.4839 35.4839,-35.4839 19.5972,0 35.4839,15.8867 35.4839,35.4839 z" id="path5908" style="fill:#00a1f1;fill-opacity:1;fill-rule:nonzero;stroke:none" transform="matrix(-0.55737499,-0.96119895,0.96119895,-0.55737499,6103.763,7708.8933)"/><path d="m 5973.9408,2846.0427 a 8.8897865,8.8897865 0 0 0 -4.8634,1.0232 l -133.8785,69.3542 a 8.8995212,8.8995212 0 1 0 8.1783,15.8089 l 133.8784,-69.3542 a 8.8897865,8.8897865 0 0 0 -3.3148,-16.8321 z" id="path5910" style="font-size:medium;font-style:normal;font-variant:normal;font-weight:normal;font-stretch:normal;text-indent:0;text-align:start;text-decoration:none;line-height:normal;letter-spacing:normal;word-spacing:normal;text-transform:none;direction:ltr;block-progression:tb;writing-mode:lr-tb;text-anchor:start;baseline-shift:baseline;color:#000000;fill:#00a1f1;fill-opacity:1;stroke:none;stroke-width:16;marker:none;visibility:visible;display:inline;overflow:visible;enable-background:accumulate;font-family:Sans;-inkscape-font-specification:Sans"/><path d="m 5973.1214,2842.1513 a 8.8897865,8.8897865 0 0 0 -1.493,17.5348 l 129.2709,31.1459 a 8.8933646,8.8933646 0 1 0 4.1667,-17.2918 l -129.2709,-31.1458 a 8.8897865,8.8897865 0 0 0 -2.6737,-0.2431 z" id="path5912" style="font-size:medium;font-style:normal;font-variant:normal;font-weight:normal;font-stretch:normal;text-indent:0;text-align:start;text-decoration:none;line-height:normal;letter-spacing:normal;word-spacing:normal;text-transform:none;direction:ltr;block-progression:tb;writing-mode:lr-tb;text-anchor:start;baseline-shift:baseline;color:#000000;fill:#00a1f1;fill-opacity:1;stroke:none;stroke-width:16;marker:none;visibility:visible;display:inline;overflow:visible;enable-background:accumulate;font-family:Sans;-inkscape-font-specification:Sans"/><path d="m 6236.9064,2813.9997 a 8.8897865,8.8897865 0 0 0 -3.9584,1.1112 l -130.1043,69.7222 a 8.901185,8.901185 0 0 0 8.4028,15.6945 l 130.0696,-69.757 a 8.8897865,8.8897865 0 0 0 -4.4097,-16.7709 z" id="path5914" style="font-size:medium;font-style:normal;font-variant:normal;font-weight:normal;font-stretch:normal;text-indent:0;text-align:start;text-decoration:none;line-height:normal;letter-spacing:normal;word-spacing:normal;text-transform:none;direction:ltr;block-progression:tb;writing-mode:lr-tb;text-anchor:start;baseline-shift:baseline;color:#000000;fill:#00a1f1;fill-opacity:1;stroke:none;stroke-width:16;marker:none;visibility:visible;display:inline;overflow:visible;enable-background:accumulate;font-family:Sans;-inkscape-font-specification:Sans"/><path d="m 3776.7217,2330.9358 c 0,19.5972 -15.8867,35.4839 -35.4839,35.4839 -19.5972,0 -35.4839,-15.8867 -35.4839,-35.4839 0,-19.5972 15.8867,-35.4839 35.4839,-35.4839 19.5972,0 35.4839,15.8867 35.4839,35.4839 z" id="path5916" style="fill:#333333;fill-opacity:1;fill-rule:nonzero;stroke:none" transform="matrix(-0.55737499,-0.96119895,0.96119895,-0.55737499,5682.6291,7934.7844)"/><path d="m 3776.7217,2330.9358 c 0,19.5972 -15.8867,35.4839 -35.4839,35.4839 -19.5972,0 -35.4839,-15.8867 -35.4839,-35.4839 0,-19.5972 15.8867,-35.4839 35.4839,-35.4839 19.5972,0 35.4839,15.8867 35.4839,35.4839 z" id="path5918" style="fill:#333333;fill-opacity:1;fill-rule:nonzero;stroke:none" transform="matrix(-0.55737499,-0.96119895,0.96119895,-0.55737499,5823.007,7912.1571)"/><path d="m 3776.7217,2330.9358 c 0,19.5972 -15.8867,35.4839 -35.4839,35.4839 -19.5972,0 -35.4839,-15.8867 -35.4839,-35.4839 0,-19.5972 15.8867,-35.4839 35.4839,-35.4839 19.5972,0 35.4839,15.8867 35.4839,35.4839 z" id="path5920" style="fill:#333333;fill-opacity:1;fill-rule:nonzero;stroke:none" transform="matrix(-0.55737499,-0.96119895,0.96119895,-0.55737499,5963.3849,8007.8093)"/><path d="m 3776.7217,2330.9358 c 0,19.5972 -15.8867,35.4839 -35.4839,35.4839 -19.5972,0 -35.4839,-15.8867 -35.4839,-35.4839 0,-19.5972 15.8867,-35.4839 35.4839,-35.4839 19.5972,0 35.4839,15.8867 35.4839,35.4839 z" id="path5922" style="fill:#333333;fill-opacity:1;fill-rule:nonzero;stroke:none" transform="matrix(-0.55737499,-0.96119895,0.96119895,-0.55737499,6103.763,7925.5277)"/><path d="m 5976.4062,3005.4062 a 8.0008,8.0008 0 0 0 -4,14.5626 l 140.25,99.9687 a 8.0008,8.0008 0 1 0 9.2813,-13.0313 l -140.25,-99.9687 a 8.0008,8.0008 0 0 0 -5.2813,-1.5313 z" id="path5924" style="font-size:medium;font-style:normal;font-variant:normal;font-weight:normal;font-stretch:normal;text-indent:0;text-align:start;text-decoration:none;line-height:normal;letter-spacing:normal;word-spacing:normal;text-transform:none;direction:ltr;block-progression:tb;writing-mode:lr-tb;text-anchor:start;baseline-shift:baseline;color:#000000;fill:#333333;fill-opacity:1;stroke:none;stroke-width:16;marker:none;visibility:visible;display:inline;overflow:visible;enable-background:accumulate;font-family:Sans;-inkscape-font-specification:Sans"/><path d="m 6259.2188,3020 a 8.0008,8.0008 0 0 0 -4.3438,1.2188 l -141.7188,85.3437 a 8.0008,8.0008 0 1 0 8.25,13.6875 l 141.7188,-85.3438 A 8.0008,8.0008 0 0 0 6259.2188,3020 z" id="path5926" style="font-size:medium;font-style:normal;font-variant:normal;font-weight:normal;font-stretch:normal;text-indent:0;text-align:start;text-decoration:none;line-height:normal;letter-spacing:normal;word-spacing:normal;text-transform:none;direction:ltr;block-progression:tb;writing-mode:lr-tb;text-anchor:start;baseline-shift:baseline;color:#000000;fill:#333333;fill-opacity:1;stroke:none;stroke-width:16;marker:none;visibility:visible;display:inline;overflow:visible;enable-background:accumulate;font-family:Sans;-inkscape-font-specification:Sans"/><path d="m 5976.875,3005.4375 a 8.0008,8.0008 0 0 0 -1.3438,0.1563 l -139.8437,26.7812 a 8.0012604,8.0012604 0 1 0 3,15.7188 l 139.8437,-26.7813 a 8.0008,8.0008 0 0 0 -1.6562,-15.875 z" id="path5928" style="font-size:medium;font-style:normal;font-variant:normal;font-weight:normal;font-stretch:normal;text-indent:0;text-align:start;text-decoration:none;line-height:normal;letter-spacing:normal;word-spacing:normal;text-transform:none;direction:ltr;block-progression:tb;writing-mode:lr-tb;text-anchor:start;baseline-shift:baseline;color:#000000;fill:#333333;fill-opacity:1;stroke:none;stroke-width:16;marker:none;visibility:visible;display:inline;overflow:visible;enable-background:accumulate;font-family:Sans;-inkscape-font-specification:Sans"/></g></svg>