<svg xmlns="http://www.w3.org/2000/svg" xmlns:xlink="http://www.w3.org/1999/xlink" width="23" height="18" viewBox="0 0 23 18"><defs><path id="lan3a" d="M50.3 104.3a1.5 1.5 0 1 1 .57 2.95 1.5 1.5 0 0 1-.57-2.95zm-12.59 6a1.5 1.5 0 1 1 2.95-.56 1.5 1.5 0 0 1-2.95.57zm7.05 2.2a1.5 1.5 0 1 1 .57 2.95 1.5 1.5 0 0 1-.57-2.95zm-11.4 4.26a1.5 1.5 0 1 1 .57 2.95 1.5 1.5 0 0 1-.57-2.95zm-2.17 1.95a2.5 2.5 0 1 0 4.32-2.15l2.91-4.16a2.48 2.48 0 0 0 2.5-.58l1.8 1.23a2.5 2.5 0 1 0 4.22-.7l2.93-4.18a2.5 2.5 0 1 0-.89-.48l-2.83 4.05a2.49 2.49 0 0 0-2.87.47l-1.8-1.2a2.5 2.5 0 1 0-3.94.91l-2.83 4.05a2.5 2.5 0 0 0-3.52 2.74z"/></defs><g><g transform="translate(-31 -103)"><use fill="#595ceb" xlink:href="#lan3a"/></g></g></svg>