<svg xmlns="http://www.w3.org/2000/svg" viewBox="0 0 16 20">
  <defs>
    <style>
      .cls-1 {
        fill: #595ceb;
      }
    </style>
  </defs>
  <path id="ic-Blacklist_IP" data-name="ic-Blacklist IP" class="cls-1" d="M-4507-1147.222a2,2,0,0,1-2-2v-16a2,2,0,0,1,2-2h9a5.005,5.005,0,0,1,5,5v13a2,2,0,0,1-2,2Zm-1-18v16a1,1,0,0,0,1,1h12a1,1,0,0,0,1-1v-13h-2a2,2,0,0,1-2-2v-2h-9A1,1,0,0,0-4508-1165.222Zm11,1a1,1,0,0,0,1,1h1.874a4.015,4.015,0,0,0-2.873-2.874Zm-7.5,11a.5.5,0,0,1-.5-.5.5.5,0,0,1,.5-.5h7a.5.5,0,0,1,.5.5.5.5,0,0,1-.5.5Zm0-3a.5.5,0,0,1-.5-.5.5.5,0,0,1,.5-.5h7a.5.5,0,0,1,.5.5.5.5,0,0,1-.5.5Zm0-3a.5.5,0,0,1-.5-.5.5.5,0,0,1,.5-.5h7a.5.5,0,0,1,.5.5.5.5,0,0,1-.5.5Z" transform="translate(4509 1167.222)"/>
</svg>
