<svg xmlns="http://www.w3.org/2000/svg" viewBox="0 0 19.981 14.001">
  <defs>
    <style>
      .cls-1 {
        fill: #a4b0d3;
      }
    </style>
  </defs>
  <g id="ic-User_List" data-name="ic-User List" transform="translate(-34.019 -683)">
    <path id="Union_293" data-name="Union 293" class="cls-1" d="M-2994.978,14h-1a6.479,6.479,0,0,1,2.055-4.257A6.477,6.477,0,0,1-2989.5,8a6.474,6.474,0,0,1,4.425,1.743A6.476,6.476,0,0,1-2983.02,14h-1a5.487,5.487,0,0,0-1.76-3.55A5.48,5.48,0,0,0-2989.5,9a5.479,5.479,0,0,0-3.718,1.451,5.476,5.476,0,0,0-1.76,3.55h0ZM-2993,3.5a3.5,3.5,0,0,1,3.5-3.5,3.5,3.5,0,0,1,3.5,3.5,3.5,3.5,0,0,1-3.5,3.5A3.5,3.5,0,0,1-2993,3.5Zm1,0a2.5,2.5,0,0,0,2.5,2.5,2.5,2.5,0,0,0,2.5-2.5,2.5,2.5,0,0,0-2.5-2.5A2.5,2.5,0,0,0-2992,3.5Z" transform="translate(3030 683)"/>
    <rect id="Rectangle_1575" data-name="Rectangle 1575" class="cls-1" width="8" height="1" rx="0.5" transform="translate(46 684)"/>
    <rect id="Rectangle_1576" data-name="Rectangle 1576" class="cls-1" width="8" height="1" rx="0.5" transform="translate(46 687)"/>
    <rect id="Rectangle_1577" data-name="Rectangle 1577" class="cls-1" width="8" height="1" rx="0.5" transform="translate(46 690)"/>
  </g>
</svg>
