<svg xmlns="http://www.w3.org/2000/svg" viewBox="0 0 19 14.001">
  <defs>
    <style>
      .cls-1 {
        fill: #a4b0d3;
      }
    </style>
  </defs>
  <g id="ic-Log_Out" data-name="ic-Log Out" transform="translate(-33 -737)">
    <path id="Union_296" data-name="Union 296" class="cls-1" d="M-2994,17.967h-7a2,2,0,0,1-2-2v-10a2,2,0,0,1,2-2h7v1h-7a1,1,0,0,0-1,1v10a1,1,0,0,0,1,1h7v1Z" transform="translate(3036.001 733.034)"/>
    <path id="Path_869" data-name="Path 869" class="cls-1" d="M13.1.164l3.906,3.559L13.1,7.258V4.691h-.994L6.194,4.7a.1.1,0,0,1-.1-.1V2.841a.1.1,0,0,1,.1-.1l5.912-.011H13.1V.164m-.2-1.176a.779.779,0,0,0-.8.784v1.98l-5.912.011A1.1,1.1,0,0,0,5.1,2.841V4.6A1.1,1.1,0,0,0,6.194,5.682l5.912-.011V7.65a.779.779,0,0,0,.8.784.765.765,0,0,0,.5-.2L17.8,4.31a.728.728,0,0,0,0-1.176L13.4-.816a.765.765,0,0,0-.5-.2Z" transform="translate(33.899 740.268)"/>
  </g>
</svg>
