<svg xmlns="http://www.w3.org/2000/svg" xmlns:xlink="http://www.w3.org/1999/xlink" width="20" height="18" viewBox="0 0 20 18"><defs><path id="9ia0a" d="M37 172a1 1 0 1 0 0-2 1 1 0 0 0 0 2zm-1-8v-2c0-.27.1-.52.3-.7a1 1 0 0 1 .7-.3l13 3zm-2 1h16a1 1 0 0 1 1 1v10a1 1 0 0 1-1 1H34a1 1 0 0 1-1-1v-10a1 1 0 0 1 1-1zm16 13a2 2 0 0 0 2-2v-2.94V165c0-1-.64-1.64-2-2l-.32-.07c-7.19-1.67-11.58-2.68-12.37-2.85-.15-.03-.3-.05-.44-.05-1.15 0-1.87 1.02-1.87 1.97v2h-1a2 2 0 0 0-2 2v10c0 1.1.9 2 2 2z"/></defs><g><g transform="translate(-32 -160)"><use fill="#a4b0d3" xlink:href="#9ia0a"/></g></g></svg>