<svg xmlns="http://www.w3.org/2000/svg" xmlns:xlink="http://www.w3.org/1999/xlink" width="20" height="19" viewBox="0 0 20 19"><defs><path id="v6wca" d="M46 283.96l-10.9.01s-.1 0-.1-.1v-1.76s0-.1.1-.1L46 282h1v-2.57l3.9 3.56-3.9 3.54v-2.57zm.8 3.74c.2 0 .4-.1.5-.2l4.4-3.92c.4-.3.4-.88 0-1.18l-4.4-3.95a.78.78 0 0 0-1.3.59v1.98l-10.9.01c-.6 0-1.1.5-1.1 1.08v1.76c0 .59.5 1.08 1.1 1.08l10.9-.01v1.98c0 .49.4.78.8.78zm-9.8.72v2.6h1l10.9-.01s.1 0 .1.1v1.78s0 .1-.1.1L38 293h-1v2.59L33.1 292zm.2 8.36c.4 0 .8-.3.8-.8V294h10.9c.6 0 1.1-.5 1.1-1.1v-1.78c0-.6-.5-1.1-1.1-1.1H38v-1.98c0-.5-.4-.8-.8-.8-.1 0-.3.1-.5.2l-4.4 3.97c-.4.3-.4.9 0 1.2l4.4 3.98c.2.1.3.2.5.2z"/></defs><g><g transform="translate(-32 -278)"><use fill="#595ceb" xlink:href="#v6wca"/></g></g></svg>