<svg xmlns="http://www.w3.org/2000/svg" xmlns:xlink="http://www.w3.org/1999/xlink" width="17" height="20" viewBox="0 0 17 20"><defs><path id="r9yca" d="M38 343a1 1 0 0 0-1-1h-1a1 1 0 0 0-1 1v9a1 1 0 0 0 1 1h1a1 1 0 0 0 1-1zm-4 9v-9c0-1.1.9-2 2-2h1a2 2 0 0 1 2 2v9a2 2 0 0 1-2 2h-1a2 2 0 0 1-2-2z"/><path id="r9ycb" d="M50 336a1 1 0 0 0-1-1h-1a1 1 0 0 0-1 1v16a1 1 0 0 0 1 1h1a1 1 0 0 0 1-1zm-4 16v-16c0-1.1.9-2 2-2h1a2 2 0 0 1 2 2v16a2 2 0 0 1-2 2h-1a2 2 0 0 1-2-2z"/><path id="r9ycc" d="M44 346a1 1 0 0 0-1-1h-1a1 1 0 0 0-1 1v6a1 1 0 0 0 1 1h1a1 1 0 0 0 1-1zm-4 6v-6c0-1.1.9-2 2-2h1a2 2 0 0 1 2 2v6a2 2 0 0 1-2 2h-1a2 2 0 0 1-2-2z"/></defs><g><g transform="translate(-34 -334)"><g><use fill="#595ceb" xlink:href="#r9yca"/></g><g><use fill="#595ceb" xlink:href="#r9ycb"/></g><g><use fill="#595ceb" xlink:href="#r9ycc"/></g></g></g></svg>