<svg xmlns="http://www.w3.org/2000/svg" xmlns:xlink="http://www.w3.org/1999/xlink" width="20" height="16" viewBox="0 0 20 16"><defs><path id="vv34a" d="M33 397h4.2l2.46 2.75-1.32 1.49L36.3 399H33zm0 8h3.3l7.1-8H49v-.95l1.8 2-1.8 1.79V399h-4.8l-7.1 8H33zm7.99-.8l1.28-1.45 2.03 2.28H49v-1l1.8 2-1.8 1.9v-.9h-5.6zm7.61 5.12c.1 0 .3 0 .4-.1l2.7-2.6c.4-.3.4-.9 0-1.1l-2.7-2.69c-.1-.1-.2-.2-.4-.2-.3 0-.6.3-.6.7v.67h-3.3l-1.77-2 1.77-2H48v.64c0 .4.3.7.6.7.1 0 .3 0 .4-.1l2.7-2.6c.4-.4.4-.9 0-1.2l-2.7-2.69c-.1-.1-.2-.1-.4-.1-.3 0-.6.3-.6.7v.65h-4.6c-.3 0-.5.1-.7.3l-2.38 2.7-2.42-2.7c-.2-.2-.5-.3-.7-.3H33c-.6 0-1 .4-1 1v2c0 .6.4 1 1 1h2.9l1.78 1.98L35.9 404H33c-.6 0-1 .4-1 1v2c0 .6.4 1 1 1h4.2c.3 0 .5-.1.7-.3l2.4-2.71 2.4 2.73c.2.2.4.3.7.3H48v.6c0 .4.3.7.6.7z"/></defs><g><g transform="translate(-32 -394)"><use fill="#595ceb" xlink:href="#vv34a"/></g></g></svg>