<svg xmlns="http://www.w3.org/2000/svg" xmlns:xlink="http://www.w3.org/1999/xlink" width="28" height="22" viewBox="0 0 28 22"><defs><path id="a9kma" d="M42.8 466v-2.34c.47-.22.9-.56 1.24-.99l-.85-.54a2.5 2.5 0 1 1 .03-3.23l.85-.54a3.5 3.5 0 0 0-1.28-1.02v-1.7h-1v1.4a3.55 3.55 0 0 0-1 0v-1.4h-1v1.7a3.5 3.5 0 0 0 0 6.32V466h1v-2.04a3.51 3.51 0 0 0 1 0V466zm-1.5-13a7.5 7.5 0 1 1-.02 15.02 7.5 7.5 0 0 1 .01-15.02zm-12.8 17.33a.5.5 0 0 0 .35-.15l1.42-1.41a.5.5 0 0 0 .07-.09h.01l2.9.79a.5.5 0 0 0 .58-.27l.02-.02 2.09-2.08a8.51 8.51 0 0 0 11.7-12.24l1.39-1.39a.5.5 0 0 0 .06-.08h.02l2.9.78a.5.5 0 0 0 .58-.26l.02-.02 2.2-2.2V454h1v-4h-.02v-.03h-4v1h2.32l-2.15 2.15-2.59-.69a.5.5 0 0 0-.55.21.5.5 0 0 0-.5.13l-1.38 1.38a8.51 8.51 0 0 0-11.74 12.27l-2 2-2.59-.7a.5.5 0 0 0-.55.22.5.5 0 0 0-.5.12l-1.41 1.42a.5.5 0 0 0 .35.85z"/></defs><g><g transform="translate(-28 -449)"><use fill="#a4b0d3" xlink:href="#a9kma"/></g></g></svg>