<svg xmlns="http://www.w3.org/2000/svg" xmlns:xlink="http://www.w3.org/1999/xlink" width="19" height="19" viewBox="0 0 19 19"><defs><path id="11j6a" d="M49.51 522.01a2.5 2.5 0 0 0-.71-.65c.11-.17.19-.33.2-.36l2-7a1 1 0 0 0-1-1H35a1 1 0 0 0-1 1l2 7c0 .01.08.18.2.36-.27.17-.51.38-.7.64a4.64 4.64 0 0 1-.5-1l-2-7c0-1.1.9-2 2-2h3.31-1.38l.1-.11 4.12-4.12a1.99 1.99 0 0 1 2.83 0l4.12 4.12.1.1-1.38.01-3.54-3.55a1 1 0 0 0-1.41 0L38.31 512H50a2 2 0 0 1 2 2l-2 7s-.16.51-.49 1.01zm-9.8.31zm0 0zM36 523.5a1.5 1.5 0 1 0 3 0 1.5 1.5 0 0 0-3 0zm9.99 0a1.5 1.5 0 1 0 3 0 1.5 1.5 0 0 0-3 0zm-1 0c0-.17.02-.34.05-.5h-5.1a2.5 2.5 0 1 1-.45-1h6a2.5 2.5 0 1 0-.5 1.5z"/></defs><g><g transform="translate(-33 -507)"><use fill="#595ceb" xlink:href="#11j6a"/></g></g></svg>