<svg xmlns="http://www.w3.org/2000/svg" xmlns:xlink="http://www.w3.org/1999/xlink" width="27" height="14" viewBox="0 0 27 14"><defs><path id="edjla" d="M32.96 571c0 1.1.9 2 2.02 2 1.11 0 2.02-.9 2.02-2s-.9-2-2.02-2c-1.11 0-2.02.9-2.02 2zm-1.01 0c0-1.65 1.36-3 3.03-3a3.02 3.02 0 0 1 3.03 3c0 1.65-1.36 3-3.03 3a3.02 3.02 0 0 1-3.03-3zM48 571a2 2 0 1 0 4 0 2 2 0 0 0-4 0zm-1 0a3 3 0 1 1 6 0 3 3 0 0 1-6 0zm-7 .5a2.5 2.5 0 1 0 5 0 2.5 2.5 0 0 0-5 0zm-1 0a3.5 3.5 0 1 1 7.01 0 3.5 3.5 0 0 1-7 0zM29 580a6.1 6.1 0 0 1 9.36-3.98l-.76.7a5.07 5.07 0 0 0-7.57 3.28zm25.9 0a5.02 5.02 0 0 0-7.48-3.28l-.76-.7a5.96 5.96 0 0 1 7.23.42 6.01 6.01 0 0 1 2.03 3.56zm-17.88 2h-1a6.48 6.48 0 0 1 6.48-6 6.47 6.47 0 0 1 6.48 6h-1a5.49 5.49 0 0 0-9.2-3.55 5.48 5.48 0 0 0-1.76 3.55z"/></defs><g><g transform="translate(-29 -568)"><use fill="#a4b0d3" xlink:href="#edjla"/></g></g></svg>