<svg xmlns="http://www.w3.org/2000/svg" xmlns:xlink="http://www.w3.org/1999/xlink" width="30" height="30" viewBox="0 0 30 30"><defs><path id="u7rna" d="M193.83 745.39a4.85 4.85 0 0 0-2.46-4.17h-.02a3.6 3.6 0 0 1-1.74-3.1v-.05a3.62 3.62 0 0 1 4.17-3.53 16.67 16.67 0 0 1 3.11 1.28c.12.06.12.07.13.09.02.03.03.04.03.1a16.93 16.93 0 0 1-3.22 9.38zm-1.95 2.24a16.48 16.48 0 0 1-2.62 2.05c-.07.04-.1.06-.25.06-.16 0-.2-.02-.27-.06-2.77-1.76-5-4.35-6.34-7.36a4.84 4.84 0 0 0 4.85-.05 3.6 3.6 0 0 1 3.49-.01l.03.02.09.05a3.64 3.64 0 0 1 1.02 5.3zm-10.45-8.13a16.64 16.64 0 0 1-.48-3.49c0-.06 0-.07.03-.1 0-.02.01-.03.13-.1a16.85 16.85 0 0 1 9.67-1.87 4.8 4.8 0 0 0-2.39 4.18v.01a3.6 3.6 0 0 1-3.62 3.6c-1.44 0-2.78-.9-3.34-2.23zM189 725a15 15 0 1 0 0 30 15 15 0 0 0 0-30z"/></defs><g><g transform="translate(-174 -725)"><use fill="#7cafff" xlink:href="#u7rna"/></g></g></svg>