<svg xmlns="http://www.w3.org/2000/svg" xmlns:xlink="http://www.w3.org/1999/xlink" width="30" height="30" viewBox="0 0 30 30"><defs><path id="5kwsa" d="M188.55 306.42a30.9 30.9 0 0 0 1.34.77c.6.32 1.3.54 1.88.55.6.02 1.08-.23 1.4-.82.32-.6.22-1.31-.32-1.9a5.9 5.9 0 0 0-1.48-1.14c-.5-.3-1.03-.55-1.03-.55l-1.79 3.1zm-2.9 5.04a31.47 31.47 0 0 0 1.79 1c.74.35 1.58.6 2.06.6.49.01 1.11-.04 1.56-.83.46-.79.12-1.42-.09-1.74a5.91 5.91 0 0 0-1.53-1.42 21.37 21.37 0 0 0-1.8-1.05l-2 3.44zm-1.1 1.9l-1.48 2.56-1.6-.92 1.47-2.57-3.15-1.82 1.44-1.73.96.55c.32.19.47.24.68.19.21-.05.35-.23.44-.39l3.83-6.63c.24-.42.28-.55.2-.87-.06-.33-.5-.61-.75-.76l-.92-.54.96-1.66 3.15 1.82 1.49-2.57 1.6.93-1.48 2.57 1.22.7 1.48-2.57 1.6.93-1.5 2.6a5.85 5.85 0 0 1 2.36 2.53c.57 1.32-.22 2.58-.42 2.87-.2.3-.68.8-1.17 1.03-.49.23-1.37.23-1.37.23s.68.62 1 1.34c.3.73.29 1.7-.35 2.74-.64 1.05-1.46 1.98-2.82 2.1-1.35.12-2.46-.36-2.95-.56-.24-.1-.65-.3-1.07-.51l-1.5 2.6-1.61-.92 1.48-2.56zM181.5 321a15 15 0 1 0 15-25.98 15 15 0 0 0-15 25.98z"/></defs><g><g transform="translate(-174 -293)"><use fill="#7cafff" xlink:href="#5kwsa"/></g></g></svg>