<svg xmlns="http://www.w3.org/2000/svg" xmlns:xlink="http://www.w3.org/1999/xlink" width="30" height="30" viewBox="0 0 30 30"><defs><path id="irjla" d="M195.28 368.68a3.65 3.65 0 0 1-4.9 1.32 3.43 3.43 0 0 1-1.35-4.74c.4-.7.15-1.59-.57-1.98-.7-.4-1.6-.16-2.02.52l-.02.03a3.65 3.65 0 0 1-4.89 1.32 3.43 3.43 0 0 1-1.36-4.75 3.65 3.65 0 0 1 6.23-.04c.43.67 1.33.88 2.03.48.71-.41.95-1.3.52-2a3.43 3.43 0 0 1 1.26-4.77c1.7-.98 3.9-.44 4.92 1.22a3.43 3.43 0 0 1-1.26 4.77c-.55.32-1.17.49-1.8.5-.83.02-1.47.68-1.46 1.47 0 .81.69 1.46 1.52 1.45.62 0 1.24.15 1.79.46a3.43 3.43 0 0 1 1.36 4.74zM189 347a15 15 0 1 0 0 30 15 15 0 0 0 0-30z"/></defs><g><g transform="translate(-174 -347)"><use fill="#7cafff" xlink:href="#irjla"/></g></g></svg>