<svg xmlns="http://www.w3.org/2000/svg" xmlns:xlink="http://www.w3.org/1999/xlink" width="30" height="30" viewBox="0 0 30 30"><defs><path id="o6oqa" d="M187.41 415.6zm0 0a30.95 30.95 0 0 0 1.33-.77 4.5 4.5 0 0 0 1.43-1.36c.3-.5.33-1.04-.02-1.62-.35-.58-1.03-.85-1.8-.67a5.9 5.9 0 0 0-1.74.7c-.5.29-.99.63-.99.63zm2.9 5.03zm0 0l.55-.3c.37-.22.85-.5 1.22-.75a5.88 5.88 0 0 0 1.56-1.48c.25-.42.5-.99.05-1.77-.45-.79-1.17-.82-1.55-.8-.39.03-1.17.21-2 .62-.82.4-1.8 1.04-1.8 1.04zm1.1 1.9l1.48 2.57-1.6.92-1.48-2.56-3.15 1.82-.78-2.11.95-.56c.33-.18.44-.29.5-.5.07-.2-.02-.41-.1-.57l-3.84-6.63c-.24-.42-.33-.51-.65-.62-.31-.1-.78.13-1.03.28l-.93.53-.96-1.66 3.15-1.82-1.48-2.57 1.6-.93 1.49 2.57 1.22-.7-1.49-2.57 1.6-.93 1.5 2.6a5.85 5.85 0 0 1 3.38-.77c1.43.16 2.12 1.48 2.27 1.8.16.32.37.99.32 1.52-.05.54-.49 1.3-.49 1.3s.87-.28 1.66-.18c.78.1 1.6.59 2.2 1.66.6 1.08.98 2.26.4 3.5-.57 1.23-1.54 1.94-1.96 2.27-.2.16-.57.41-.97.67l1.5 2.6-1.6.93-1.48-2.56zm-15.4.97a15 15 0 1 0 25.98-15 15 15 0 0 0-25.98 15z"/></defs><g><g transform="translate(-174 -401)"><use fill="#7cafff" xlink:href="#o6oqa"/></g></g></svg>