<svg xmlns="http://www.w3.org/2000/svg" xmlns:xlink="http://www.w3.org/1999/xlink" width="30" height="30" viewBox="0 0 30 30"><defs><path id="vb5ea" d="M188.98 461.72h.03a.5.5 0 0 1-.03 1h-.01-.02a.5.5 0 0 1-.3-.87.5.5 0 0 1 .33-.13zm4.3.46c.08 0 .16.02.22.07a.4.4 0 0 1-.21.72.4.4 0 0 1 0-.79zm-8.25.24a.4.4 0 0 1-.47.55.4.4 0 0 1 .12-.77c.15 0 .28.08.35.22zm7.14 1.51a.61.61 0 0 1 0 1.22.61.61 0 0 1-.34-.1.6.6 0 1 1 .33-1.12zm-5.82.35a.6.6 0 0 1-.73.85.6.6 0 0 1 .19-1.18.6.6 0 0 1 .54.33zm2.68.16c.4.02.7.36.67.75a.72.72 0 0 1-.71.68h-.02-.02a.7.7 0 0 1-.67-.76.71.71 0 0 1 .75-.67zm6.73 1.19c.06 0 .1 0 .16.02a.5.5 0 1 1-.6.7.5.5 0 0 1 .44-.73zm-13.54.02a.5.5 0 0 1 .1 1 .5.5 0 0 1-.38-.07.5.5 0 0 1-.14-.7.49.49 0 0 1 .42-.23zm11.01 1.23c.27 0 .52.15.64.4a.72.72 0 0 1-.64 1.03.72.72 0 1 1 0-1.43zm-8.47.02a.7.7 0 0 1 .7.57.7.7 0 0 1-.56.84.7.7 0 0 1-.54-.1.7.7 0 0 1-.2-.99c.13-.2.36-.32.6-.32zm5.66-.54a1.22 1.22 0 0 1 0 2.43 1.22 1.22 0 0 1 0-2.43zm-2.85 0a1.22 1.22 0 1 1 0 2.43 1.2 1.2 0 0 1-1.09-.66 1.22 1.22 0 0 1 1.09-1.76zm10.04 3.29h.02c.1 0 .2.05.27.13s.1.18.1.28a.4.4 0 0 1-.4.37h-.01a.39.39 0 0 1-.37-.41.4.4 0 0 1 .39-.37zm-17.22.04h.02a.39.39 0 0 1 .37.41.4.4 0 0 1-.39.37h-.02a.39.39 0 0 1-.37-.41.4.4 0 0 1 .4-.37zm14.96-.25h.03a.6.6 0 0 1-.03 1.21h-.02-.01a.6.6 0 0 1-.57-.64.6.6 0 0 1 .6-.57zm-12.7.03h.03a.6.6 0 0 1 .57.64.6.6 0 0 1-.6.57h-.03a.6.6 0 0 1 .03-1.21zm9.28-.63c.32.02.62.16.83.4.22.25.33.56.3.88a1.21 1.21 0 0 1-1.24 1.15h-.03a1.2 1.2 0 0 1-1.14-1.28 1.21 1.21 0 0 1 1.28-1.15zm-5.72.01a1.21 1.21 0 0 1-.07 2.43h-.07a1.22 1.22 0 0 1 .14-2.43zm7.03 2.94a.71.71 0 0 1 .6 1.1.72.72 0 0 1-.99.21.72.72 0 0 1-.2-.99.7.7 0 0 1 .6-.32zm-8.47.02c.27 0 .51.15.63.4a.72.72 0 0 1-.63 1.03.71.71 0 0 1-.64-.4.72.72 0 0 1 .64-1.03zm6.75.18a1.22 1.22 0 0 1-1.08 1.76 1.2 1.2 0 0 1-1.09-.67 1.21 1.21 0 1 1 2.16-1.1zm-3.94-.66a1.2 1.2 0 0 1 1.18.97 1.21 1.21 0 1 1-2.37.5 1.22 1.22 0 0 1 1.19-1.47zm8.2 2.13c.1 0 .2.03.27.09a.5.5 0 1 1-.55.84.5.5 0 0 1 .28-.93zm-13.39.06a.5.5 0 0 1-.16.98l-.15-.03a.5.5 0 0 1 .31-.95zm6.61.73a.71.71 0 0 1-.04 1.43h-.04a.71.71 0 0 1 .08-1.43zm3.38.74a.6.6 0 1 1-.38 1.15.6.6 0 0 1 .38-1.15zm-6.54-.02a.6.6 0 1 1-.33 1.12.6.6 0 0 1 .33-1.12zm7.48 2.16l.12.02a.4.4 0 0 1-.12.77c-.04 0-.09 0-.12-.02a.4.4 0 0 1-.05-.73.4.4 0 0 1 .17-.04zm-8.94.2a.39.39 0 0 1 .55-.11.4.4 0 0 1-.21.72.4.4 0 0 1-.33-.61zm4.61.07a.5.5 0 0 1 .47.53.5.5 0 0 1-.5.47h-.02a.5.5 0 0 1-.3-.87.5.5 0 0 1 .35-.13zM204 470c0-8.27-6.73-15-15-15s-15 6.73-15 15 6.73 15 15 15 15-6.73 15-15z"/></defs><g><g transform="translate(-174 -455)"><use fill="#7cafff" xlink:href="#vb5ea"/></g></g></svg>