<svg xmlns="http://www.w3.org/2000/svg" xmlns:xlink="http://www.w3.org/1999/xlink" width="30" height="30" viewBox="0 0 30 30"><defs><path id="wsnra" d="M195 571.63a1.88 1.88 0 1 0-3.75 0 1.88 1.88 0 0 0 3.75 0zm-9.37 7.84l1.48 1 1.48 1.01c-.88 2.24-2.61 2.84-3.4 2.84h-.1a.87.87 0 0 1-.77-.52 3.85 3.85 0 0 1 .37-3.05c.42-.78.93-1.27.94-1.28zm5.24 1.75a1.63 1.63 0 0 1-1.4.28 1.66 1.66 0 0 1-.52-.24l-1.62-1.1-1.63-1.1a1.66 1.66 0 0 1-.67-1.8 7.75 7.75 0 0 0-3.56-.27c-.02 0-.04 0-.04-.02v-.04a7.66 7.66 0 0 1 2.57-2.37 4.97 4.97 0 0 1 2.77-.58 30.94 30.94 0 0 1 3-4.51l.3-.32a5.91 5.91 0 0 1 2.74-1.52c.63-.16 1.3-.24 2-.24.67 0 1.1.07 1.12.08a8.03 8.03 0 0 1 1.06 3.8c0 .95-.21 1.85-.64 2.66a21.5 21.5 0 0 1-1.52 2.4c-.43.62-.96 1.31-1.56 2.06.62 1.25 1 3.3-.76 6.05l-.04.02a.04.04 0 0 1-.03-.03 7.67 7.67 0 0 0-1.57-3.2v-.01zm-7.36 4.5l.25.17-1.65 2.4-.25-.17 1.65-2.4zm-.2-1.33l-3 4.27-.25-.17 3-4.28zm11.53 7.43a14.95 14.95 0 0 0 7.98-7.98 14.9 14.9 0 0 0 0-11.68 14.95 14.95 0 0 0-7.98-7.98 14.9 14.9 0 0 0-11.68 0 14.95 14.95 0 0 0-7.98 7.98 14.9 14.9 0 0 0 0 11.68 14.95 14.95 0 0 0 7.98 7.98 14.9 14.9 0 0 0 11.68 0z"/></defs><g><g transform="translate(-174 -563)"><use fill="#7cafff" xlink:href="#wsnra"/></g></g></svg>