<svg xmlns="http://www.w3.org/2000/svg" xmlns:xlink="http://www.w3.org/1999/xlink" width="30" height="30" viewBox="0 0 30 30"><defs><path id="hexla" d="M192.24 684.78l.84-2.44-3.58-4.71v2.83zm-6.51.05l2.76-4.37v-2.85l-3.62 4.73zm9.13 4.08l-1.28-4.91-.64 1.88zm-11.75.05l1.92-3.04-.66-1.91zm3.82 2.45l-1.48-4.27-2.7 4.27zm3.06 0l1.84-5.4-2.83-4.47-2.85 4.51 1.84 5.36zm5.26 0l-2.73-4.3-1.47 4.3zm-6.25 2.9l.64-1.9h-1.3zm-.9.49l-.83-2.38h-3.48zm1.8 0l4.31-2.38h-3.5zm-1.3-18.98c.1-.12.24-.2.4-.2.16 0 .3.08.4.2l4.64 6.12c.05.06.08.12.1.18l2.5 9.67a.5.5 0 0 1-.24.56l-7.16 3.96a.51.51 0 0 1-.49 0l-7.16-3.96a.5.5 0 0 1-.24-.56l2.46-9.67a.5.5 0 0 1 .09-.18l4.7-6.12zM189 701a15 15 0 1 0 0-30 15 15 0 0 0 0 30z"/></defs><g><g transform="translate(-174 -671)"><use fill="#7cafff" xlink:href="#hexla"/></g></g></svg>