<?xml version="1.0" encoding="utf-8"?>
<!-- Generator: Adobe Illustrator 15.1.0, SVG Export Plug-In  -->
<!DOCTYPE svg PUBLIC "-//W3C//DTD SVG 1.1//EN" "http://www.w3.org/Graphics/SVG/1.1/DTD/svg11.dtd" [
	<!ENTITY ns_flows "http://ns.adobe.com/Flows/1.0/">
]>
<svg version="1.1"
	 xmlns="http://www.w3.org/2000/svg" xmlns:xlink="http://www.w3.org/1999/xlink" xmlns:a="http://ns.adobe.com/AdobeSVGViewerExtensions/3.0/"
	 x="0px" y="0px" width="200px" height="80px" viewBox="-19.896 -4.163 200 80" enable-background="new -19.896 -4.163 200 80"
	 xml:space="preserve">
<defs>
</defs>
<path fill="#808080" d="M154.805,34.344c0.017-0.122,0.018-0.245,0.004-0.368c-0.009-0.05-0.011-0.099-0.021-0.153
	c-0.038-0.162-0.096-0.322-0.19-0.467l0,0l0,0c0-0.001-0.002-0.004-0.002-0.004L135.431,4.145c-0.098-0.148-0.225-0.264-0.359-0.365
	c-0.037-0.027-0.077-0.046-0.116-0.069c-0.111-0.068-0.229-0.119-0.355-0.153c-0.029-0.008-0.055-0.03-0.083-0.036l-15.984-3.319
	c-5.212-1.082-10.332,2.278-11.414,7.491L97.11,55.899c-1.082,5.211,2.279,10.331,7.488,11.412l32.137,6.672
	c5.211,1.083,10.332-2.275,11.413-7.487l6.655-32.053C154.81,34.409,154.799,34.376,154.805,34.344z"/>
<path fill="#FFFFFF" d="M134.925,8.653l15.334,23.367l-12.734-2.644c-3.648-0.757-6.001-4.34-5.244-7.99L134.925,8.653
	L134.925,8.653z"/>
<path fill="#FFFFFF" d="M137.325,71.147l-32.138-6.671c-3.649-0.76-6-4.342-5.243-7.99l10.008-48.204
	c0.759-3.65,4.343-6.001,7.991-5.245l14.563,3.024l-3.06,14.737c-1.083,5.212,2.278,10.332,7.488,11.413l14.738,3.061l-6.359,30.634
	C144.557,69.554,140.974,71.906,137.325,71.147z"/>
<text transform="matrix(0.9791 0.2033 -0.2033 0.9791 112.9961 61.3062)" fill="#808080" font-family="'MyriadPro-Regular'" font-size="15">PDF</text>
<path fill="#808080" d="M54.929,21.332c-0.04-0.117-0.094-0.225-0.163-0.329c-0.029-0.041-0.055-0.084-0.088-0.126
	c-0.107-0.128-0.23-0.245-0.381-0.331l0,0l0,0c0-0.001-0.003-0.002-0.003-0.002L23.958,3.217c-0.153-0.087-0.319-0.133-0.485-0.162
	c-0.044-0.007-0.089-0.006-0.134-0.009c-0.13-0.01-0.259-0.001-0.386,0.025c-0.031,0.006-0.063-0.002-0.092,0.006L7.112,7.375
	C1.977,8.776-1.06,14.094,0.342,19.23l12.963,47.496c1.401,5.135,6.719,8.171,11.853,6.77l31.664-8.642
	c5.133-1.4,8.172-6.718,6.771-11.852L54.973,21.42C54.964,21.388,54.939,21.363,54.929,21.332z"/>
<path fill="#FFFFFF" d="M25.555,7.463l24.27,13.861l-12.547,3.424c-3.595,0.981-7.317-1.144-8.298-4.74L25.555,7.463L25.555,7.463z"
	/>
<path fill="#FFFFFF" d="M56.059,62.06l-31.664,8.642c-3.596,0.981-7.317-1.145-8.298-4.739L3.134,18.468
	c-0.981-3.596,1.146-7.319,4.74-8.3l14.349-3.916l3.963,14.52c1.402,5.136,6.72,8.172,11.853,6.771l14.522-3.963l8.238,30.184
	C61.781,57.357,59.654,61.079,56.059,62.06z"/>
<text transform="matrix(0.9647 -0.2633 0.2633 0.9647 23.3506 65.9897)" fill="#808080" font-family="'MyriadPro-Regular'" font-size="15">PNG</text>
<path fill="#808080" d="M106.345,28.122c-0.008-0.123-0.031-0.242-0.07-0.36c-0.018-0.047-0.03-0.096-0.052-0.145
	c-0.07-0.152-0.158-0.296-0.281-0.419l0,0l0,0c0-0.001-0.002-0.003-0.002-0.003L81.236,2.492c-0.125-0.125-0.272-0.213-0.425-0.284
	c-0.042-0.019-0.084-0.03-0.127-0.044c-0.123-0.043-0.25-0.07-0.379-0.077c-0.03-0.002-0.059-0.019-0.09-0.019H63.89
	c-5.323,0-9.652,4.331-9.652,9.654v49.234c0,5.322,4.331,9.651,9.652,9.651h32.822c5.321,0,9.652-4.329,9.652-9.651V28.218
	C106.364,28.185,106.347,28.155,106.345,28.122z"/>
<path fill="#FFFFFF" d="M81.658,7.009l19.764,19.762H88.416c-3.727,0-6.758-3.03-6.758-6.758V7.009L81.658,7.009z"/>
<path fill="#FFFFFF" d="M96.712,67.71H63.89c-3.727,0-6.758-3.031-6.758-6.757V11.722c0-3.728,3.032-6.759,6.758-6.759h14.875
	v15.051c0,5.323,4.331,9.652,9.652,9.652h15.053v31.288C103.47,64.68,100.438,67.71,96.712,67.71z"/>
<text transform="matrix(1 0 0 1 69.666 61.8384)" fill="#808080" font-family="'MyriadPro-Regular'" font-size="15">JPG</text>
</svg>
